# xmcd CD database file
#
# Track frame offsets:
#	150
#	12780
#	27397
#	43945
#	68687
#	96490
#	118722
#	130245
#	145282
#	159195
#	171455
#	182875
#	205250
#	230997
#	249192
#	273622
#	301895
#	316572
#
# Disc length: 4582 seconds
#
# Revision: 0
# Processed by: cddbd v1.5PL3 Copyright (c) Steve Scherf et al.
# Submitted via: CDex 1.51
#
DISCID=0111e412
DTITLE=ボブ・ディラン - ザ・ベスト・オブ・ボブ・ディラン
DYEAR=1900
DGENRE=Folk
TTITLE0=風に吹かれて
TTITLE1=時代は変わる
TTITLE2=くよくよするなよ
TTITLE3=ミスター・タンブリン・マン
TTITLE4=ライク・ア・ローリング・ストーン
TTITLE5=女の如く
TTITLE6=見張塔からずっと
TTITLE7=レイ・レディ・レイ
TTITLE8=アイ・シャル・ビー・リリースト
TTITLE9=イフ・ノット・フォア・ユー
TTITLE10=天国への扉
TTITLE11=いつまでも若く
TTITLE12=ブルーにこんがらがって
TTITLE13=オー・シスター
TTITLE14=ガッタ・サーヴ・サムバディ
TTITLE15=ジョーカーマン
TTITLE16=エブリシング・イズ・ブロークン
TTITLE17=嵐からの隠れ場所（オルタネイト・ヴァージョン）
EXTD=
EXTT0=
EXTT1=
EXTT2=
EXTT3=
EXTT4=
EXTT5=
EXTT6=
EXTT7=
EXTT8=
EXTT9=
EXTT10=
EXTT11=
EXTT12=
EXTT13=
EXTT14=
EXTT15=
EXTT16=
EXTT17=
PLAYORDER=
